# xmcd
#
# Track frame offsets:
#	150
#	20925
#	36151
#	53101
#	72526
#	89579
#	102030
#	118530
#	139005
#	154080
#	170805
#	186855
#	232005
#	254955
#	273105
#	294255
#
# Disc length: 4187 seconds
#
# Revision: 1
# Processed by: cddbd v1.5.2PL0 Copyright (c) Steve Scherf et al.
# Submitted via: audiograbber 1.83.01
#
DISCID=f2105910
DTITLE=Zack Brown Band - Yo Get What You Give
DYEAR=2010
DGENRE=Country
TTITLE0=Let It Go
TTITLE1=Knee Deep (Feat. Jimmy Buffett)
TTITLE2=No Hurry
TTITLE3=I Play The Road
TTITLE4=Cold Hearted
TTITLE5=Whiskey's Gone
TTITLE6=Quiet Your Mind
TTITLE7=Colder Weather
TTITLE8=Settle Me Down
TTITLE9=As She's Walking Away (Feat. Alan Jackson)
TTITLE10=Keep Me In Mind
TTITLE11=Who Knows
TTITLE12=Martin
TTITLE13=Make This Day
TTITLE14=Oh My Sweet Carolina (Live)
TTITLE15=Nothing
EXTD=
EXTT0=
EXTT1=
EXTT2=
EXTT3=
EXTT4=
EXTT5=
EXTT6=
EXTT7=
EXTT8=
EXTT9=
EXTT10=
EXTT11=
EXTT12=
EXTT13=
EXTT14=
EXTT15=
PLAYORDER=
